<?xml version="1.0" encoding="UTF-8" standalone="no"?>
<!DOCTYPE svg PUBLIC "-//W3C//DTD SVG 1.1//EN" "http://www.w3.org/Graphics/SVG/1.1/DTD/svg11.dtd">
<svg width="100%" height="100%" viewBox="0 0 1742 2763" version="1.1" xmlns="http://www.w3.org/2000/svg" xmlns:xlink="http://www.w3.org/1999/xlink" xml:space="preserve" xmlns:serif="http://www.serif.com/" style="fill-rule:evenodd;clip-rule:evenodd;stroke-linejoin:round;stroke-miterlimit:2;">
    <path d="M992.126,519.685C979.642,593.479 1062.76,593.927 1039.37,599.81C638.272,700.717 691.934,1206.34 779.528,1251.97C742.514,1008.75 810.588,837.999 897.638,732.283C939.128,681.896 984.929,646.095 1062.99,623.895C1081.79,647.64 1105.24,663.739 1133.86,661.417C827.321,720.541 816.666,1205.15 874.016,1275.59C881.898,1091.67 932.752,812.964 1167.65,661.417C1167.46,668.401 1148.66,706.263 1149.69,732.283C1150.33,748.544 1159.13,756.748 1162.61,760.479C1196.22,796.49 1346.56,825.21 1375.21,831.345L1537.91,714.295C1536.56,707.073 1536.91,699.6 1538.94,692.514L1506.77,644.969L1508.05,644.1C1499.36,645.364 1490.3,641.717 1485.06,633.964C1477.75,623.166 1480.59,608.468 1491.38,601.162C1502.18,593.855 1516.88,596.69 1524.19,607.488C1529.43,615.24 1529.45,625.004 1525.05,632.599L1526.33,631.73L1552.61,670.571C1557.2,666.402 1562.42,663.302 1567.93,661.265L1573.57,593.268L1575.11,593.396C1567.55,588.934 1562.78,580.415 1563.56,571.086C1564.63,558.093 1576.06,548.419 1589.05,549.496C1602.04,550.573 1611.71,561.996 1610.64,574.989C1609.86,584.318 1603.76,591.936 1595.57,595.092L1597.11,595.22L1591.83,658.933C1596.92,659.744 1601.9,661.391 1606.56,663.868L1651.27,620.273L1652.35,621.382C1649.57,613.055 1651.56,603.496 1658.26,596.961C1667.6,587.86 1682.57,588.05 1691.67,597.385C1700.77,606.721 1700.58,621.688 1691.24,630.789C1684.54,637.324 1674.93,639.069 1666.68,636.078L1667.76,637.187L1623.99,679.865C1627.5,685.274 1629.79,691.24 1630.87,697.377L1693.19,693.785L1693.28,695.331C1696.64,687.221 1704.41,681.307 1713.76,680.769C1726.77,680.019 1737.95,689.977 1738.7,702.992C1739.45,716.008 1729.49,727.184 1716.48,727.935C1707.13,728.473 1698.73,723.491 1694.46,715.821L1694.55,717.368L1628.95,721.149C1627.51,725.282 1625.49,729.25 1622.87,732.924L1669.87,771.096L1668.89,772.298C1676.84,768.573 1686.57,769.442 1693.83,775.344C1703.95,783.563 1705.5,798.452 1697.28,808.572C1689.06,818.692 1674.17,820.235 1664.05,812.015C1656.78,806.114 1653.94,796.774 1655.95,788.229L1654.98,789.432L1604.4,748.356C1593.19,753.61 1580.35,754.207 1568.78,750.185L1398.83,925.833C1398.83,925.833 1154.44,885.207 1138.99,902.211C1073.2,974.592 997.404,1121.16 967.885,1219.8C962.198,1238.81 956.903,1257.99 951.978,1277.33L1196.29,1434.65L1196.15,1434.88L1196.29,1434.88L1196.29,1652.43C1207.25,1657.91 1215.79,1667.52 1219.85,1679.22L1284.57,1686.76L1284.39,1688.3C1289.1,1680.89 1297.77,1676.41 1307.07,1677.49C1320.02,1679 1329.31,1690.74 1327.8,1703.68C1326.29,1716.63 1314.56,1725.92 1301.61,1724.42C1292.31,1723.33 1284.9,1716.98 1282.01,1708.68L1281.84,1710.22L1221.7,1703.22C1220.89,1707.65 1219.46,1711.87 1217.51,1715.79L1260.6,1765.4L1259.43,1766.42C1267.9,1764.12 1277.33,1766.66 1283.47,1773.72C1292.02,1783.57 1290.96,1798.5 1281.12,1807.05C1271.28,1815.6 1256.35,1814.55 1247.8,1804.7C1241.66,1797.63 1240.47,1787.94 1243.93,1779.88L1242.76,1780.89L1201.82,1733.76C1196.68,1737.27 1190.81,1739.8 1184.48,1741.06L1184.48,1802.19L1182.93,1802.19C1190.84,1806.01 1196.29,1814.11 1196.29,1823.47C1196.29,1836.51 1185.71,1847.09 1172.67,1847.09C1159.63,1847.09 1149.05,1836.51 1149.05,1823.47C1149.05,1814.11 1154.51,1806.01 1162.41,1802.19L1160.86,1802.19L1160.86,1739.74C1155.84,1738.14 1151.18,1735.72 1147.05,1732.64L1105.11,1780.9L1103.94,1779.88C1107.4,1787.95 1106.21,1797.64 1100.07,1804.71C1091.52,1814.55 1076.59,1815.6 1066.74,1807.04C1056.9,1798.49 1055.86,1783.56 1064.41,1773.72C1070.55,1766.65 1079.98,1764.12 1088.45,1766.42L1087.28,1765.4L1132.03,1713.9C1129.64,1708.53 1128.22,1702.63 1128,1696.44L1081.84,1704.73L1081.57,1703.21C1079.21,1711.66 1072.2,1718.46 1062.99,1720.12C1050.16,1722.43 1037.87,1713.88 1035.56,1701.05C1033.26,1688.22 1041.8,1675.93 1054.63,1673.62C1063.85,1671.97 1072.78,1675.9 1077.94,1683.01L1077.67,1681.48L1134.17,1671.33C1137.83,1664.93 1142.94,1659.47 1149.05,1655.39L1138.99,1469.14L926.387,1374.65C882.876,1571.34 920.644,1715.36 921.26,1913.39C921.672,2045.74 903.137,2201.39 880.634,2332.64C836.972,2587.3 626.53,2819.67 335.836,2744.73C214.775,2713.52 5.127,2555.76 5.127,2555.76C280.413,2700.18 606.01,2763.04 732.283,2503.94C932.855,2092.38 743.639,1798.57 619.301,1398.27L430.324,1469.14L417.687,1655.39C423.799,1659.47 428.91,1664.93 432.567,1671.33L489.07,1681.48L488.796,1683.01C493.955,1675.9 502.889,1671.97 512.103,1673.62C524.934,1675.93 533.48,1688.22 531.174,1701.05C528.868,1713.88 516.578,1722.43 503.746,1720.12C494.533,1718.46 487.529,1711.66 485.166,1703.21L484.892,1704.73L438.734,1696.44C438.513,1702.63 437.094,1708.53 434.703,1713.9L479.456,1765.4L478.286,1766.42C486.759,1764.12 496.189,1766.65 502.328,1773.72C510.88,1783.56 509.833,1798.49 499.992,1807.04C490.151,1815.6 475.218,1814.55 466.667,1804.71C460.527,1797.64 459.335,1787.95 462.794,1779.88L461.625,1780.9L419.691,1732.64C415.556,1735.72 410.898,1738.14 405.876,1739.74L405.876,1802.19L404.327,1802.19C412.231,1806.01 417.687,1814.11 417.687,1823.47C417.687,1836.51 407.103,1847.09 394.065,1847.09C381.028,1847.09 370.443,1836.51 370.443,1823.47C370.443,1814.11 375.9,1806.01 383.803,1802.19L382.254,1802.19L382.254,1741.06C375.929,1739.8 370.057,1737.27 364.913,1733.76L323.975,1780.89L322.806,1779.88C326.267,1787.94 325.078,1797.63 318.94,1804.7C310.391,1814.55 295.459,1815.6 285.616,1807.05C275.772,1798.5 274.721,1783.57 283.27,1773.72C289.408,1766.66 298.837,1764.12 307.31,1766.42L306.141,1765.4L349.23,1715.79C347.274,1711.87 345.847,1707.65 345.04,1703.22L284.901,1710.22L284.722,1708.68C281.84,1716.98 274.429,1723.33 265.131,1724.42C252.181,1725.92 240.443,1716.63 238.935,1703.68C237.426,1690.74 246.715,1679 259.665,1677.49C268.963,1676.41 277.636,1680.89 282.347,1688.3L282.168,1686.76L346.882,1679.22C350.949,1667.52 359.486,1657.91 370.443,1652.43L370.443,1434.88L370.587,1434.88L370.443,1434.65L572.056,1280.16C544.129,1182.01 530.502,1107.34 531.68,1014C534.327,804.222 600.671,657.238 737.411,547.881L619.301,382.526L715.041,180.594C706.693,171.629 702.059,159.638 702.343,147.256L644.358,117.55L645.064,116.171C638.059,121.463 628.365,122.628 620.034,118.36C608.43,112.415 603.836,98.169 609.781,86.565C615.725,74.962 629.972,70.368 641.575,76.312C649.906,80.58 654.624,89.128 654.422,97.905L655.128,96.526L709.014,124.133C711.322,120.26 714.136,116.805 717.338,113.823L694.334,52.267L695.786,51.725C687.044,50.911 679.099,45.237 675.822,36.469C671.258,24.256 677.468,10.636 689.68,6.072C701.893,1.508 715.513,7.718 720.077,19.931C723.354,28.699 721.076,38.194 715.011,44.54L716.462,43.998L738.316,102.48C744.365,100.987 750.749,100.677 757.116,101.71L778.509,44.439L779.961,44.981C773.894,38.635 771.616,29.141 774.891,20.372C779.454,8.159 793.073,1.947 805.286,6.509C817.499,11.071 823.711,24.691 819.149,36.904C815.873,45.673 807.928,51.348 799.187,52.163L800.638,52.705L778.785,111.207C782.928,114.465 786.445,118.361 789.241,122.693L845.411,92.16L846.151,93.521C845.734,84.752 850.241,76.091 858.466,71.62C869.92,65.394 884.275,69.638 890.501,81.093C896.728,92.547 892.483,106.902 881.029,113.128C872.804,117.599 863.085,116.671 855.953,111.553L856.692,112.914L796.747,145.499C797.108,151.368 796.373,157.388 794.411,163.272L840.553,171.653L840.276,173.178C845.449,166.084 854.391,162.163 863.601,163.835C876.428,166.166 884.951,178.472 882.621,191.299C880.291,204.126 867.985,212.649 855.157,210.319C845.947,208.646 838.956,201.83 836.608,193.371L836.331,194.895L779.848,184.635C774.183,189.35 767.483,192.68 760.332,194.359L690.167,382.526L808.277,477.014C842.724,456.572 889.159,426.936 955.46,404.629C950.73,437.51 948.458,450.109 968.504,486.856C567.788,588.499 530.049,1116.49 661.417,1204.72C599.911,874.399 747.482,616.228 992.126,519.685ZM1092.65,461.155C1056.65,441.71 1043.05,414.583 1043.14,382.754L1044.5,382.526C1201.61,356.384 1248.77,367.983 1254.55,335.282C1297.6,91.721 1520.25,200.325 1627.04,240.18C1624.26,292.841 1657.94,600.311 1455.68,549.516C1360.51,525.613 1256.77,568.272 1200.35,631.693C1169.19,614.448 1156.65,594.586 1162.72,572.106C1154,576.356 1144.2,578.74 1133.86,578.74C1097.42,578.74 1067.84,549.158 1067.84,512.72C1067.84,491.867 1077.53,473.259 1092.65,461.155ZM1529.53,259.843C1558.86,259.843 1582.68,283.658 1582.68,312.992C1582.68,342.326 1558.86,366.142 1529.53,366.142C1500.19,366.142 1476.38,342.326 1476.38,312.992C1476.38,283.658 1500.19,259.843 1529.53,259.843ZM1529.53,277.559C1549.08,277.559 1564.96,293.436 1564.96,312.992C1564.96,332.548 1549.08,348.425 1529.53,348.425C1509.97,348.425 1494.09,332.548 1494.09,312.992C1494.09,293.436 1509.97,277.559 1529.53,277.559Z" style="fill:rgb(255,251,0);stroke:black;stroke-width:8.33px;stroke-linecap:round;stroke-miterlimit:1.5;"/>
</svg>
