<?xml version="1.0" encoding="UTF-8" standalone="no"?>
<!DOCTYPE svg PUBLIC "-//W3C//DTD SVG 1.1//EN" "http://www.w3.org/Graphics/SVG/1.1/DTD/svg11.dtd">
<svg width="100%" height="100%" viewBox="0 0 71 32" version="1.1" xmlns="http://www.w3.org/2000/svg" xmlns:xlink="http://www.w3.org/1999/xlink" xml:space="preserve" xmlns:serif="http://www.serif.com/" style="fill-rule:evenodd;clip-rule:evenodd;stroke-linejoin:round;stroke-miterlimit:2;">
    <g id="cloud.svg" transform="matrix(0.0180587,0,0,0.0180587,16,16)">
        <g transform="matrix(1,0,0,1,-886,-886)">
            <clipPath id="_clip1">
                <rect x="0" y="0" width="1772" height="1772"/>
            </clipPath>
            <g clip-path="url(#_clip1)">
                <path d="M1771.65,177.121C1771.65,79.365 1692.29,0 1594.53,0L176.239,0C78.483,0 -0.882,79.365 -0.882,177.121L-0.882,1594.09C-0.882,1691.85 78.483,1771.21 176.239,1771.21L1594.53,1771.21C1692.29,1771.21 1771.65,1691.85 1771.65,1594.09L1771.65,177.121ZM964.305,885.411C963.778,668.431 788.083,491.595 571.03,491.595C353.65,491.595 177.165,668.08 177.165,885.459C177.165,1102.84 353.65,1279.32 571.03,1279.32L571.03,1121.78C440.602,1121.78 334.711,1015.89 334.711,885.459C334.711,755.031 440.602,649.141 571.03,649.141C701.353,649.141 806.591,755.744 806.76,886.047L806.761,886.684C807.289,1103.66 983.57,1279.62 1200.62,1279.62C1418,1279.62 1594.49,1103.13 1594.49,885.753C1594.49,715.98 1486.84,571.151 1336.12,515.852C1328.94,499.259 1318.58,483.712 1305.02,470.154C1247.4,412.537 1153.85,412.537 1096.23,470.154C1038.61,527.772 1038.61,621.328 1096.23,678.946C1153.85,736.563 1247.4,736.563 1305.02,678.946C1306.18,677.788 1307.31,676.615 1308.42,675.433C1384.7,714.634 1436.94,794.141 1436.94,885.753C1436.94,1016.18 1331.05,1122.07 1200.62,1122.07C1070.3,1122.07 964.475,1016.35 964.306,886.047L964.305,885.411Z" style="fill:white;"/>
            </g>
        </g>
    </g>
    <g transform="matrix(1,0,0,1,-7.1207,5.73903)">
        <text x="40.176px" y="8.162px" style="font-family:'Calibri-Bold', 'Calibri', sans-serif;font-weight:700;font-size:16px;fill:white;">Maia</text>
    </g>
    <g transform="matrix(1,0,0,1,-6.65816,18.0508)">
        <text x="40.176px" y="8.162px" style="font-family:'Calibri-Bold', 'Calibri', sans-serif;font-weight:700;font-size:16px;fill:white;">Mee<tspan x="70.16px " y="8.162px ">t</tspan></text>
    </g>
</svg>
